<?xml version="1.0" encoding="utf-8"?>
<!-- Generator: Adobe Illustrator 18.1.0, SVG Export Plug-In . SVG Version: 6.00 Build 0)  -->
<svg version="1.1" id="Layer_1" xmlns="http://www.w3.org/2000/svg" xmlns:xlink="http://www.w3.org/1999/xlink" x="0px" y="0px"
	 viewBox="0 0 174.7 174.7" enable-background="new 0 0 174.7 174.7" xml:space="preserve">
<g>
	<path fill="#F26322" d="M51.1,18.3l23.5,18.8C61,44.3,45.2,62.3,41.3,77.7c1.3-0.9,5.1-1.3,8.6-1.3c16.2,0,29.1,12.4,29.1,30.8
		s-15.4,33.8-33.8,33.8c-20.1,0-38-15.8-38-43.6C7.1,65.3,24.6,36.7,51.1,18.3z M137.9,18.3l23.9,18.8
		c-13.7,7.3-29.9,25.2-33.3,40.6c1.3-0.9,5.1-1.3,8.6-1.3c15.8,0,28.6,12.4,28.6,30.8s-15,33.8-33.8,33.8
		c-20.1,0-37.6-15.8-37.6-43.6C94.3,65.3,111.4,36.7,137.9,18.3z"/>
</g>
</svg>
