<?xml version="1.0" encoding="utf-8"?>
<!-- Generator: Adobe Illustrator 18.1.0, SVG Export Plug-In . SVG Version: 6.00 Build 0)  -->
<svg version="1.1" id="Layer_1" xmlns="http://www.w3.org/2000/svg" xmlns:xlink="http://www.w3.org/1999/xlink" x="0px" y="0px"
	 viewBox="0 0 174.7 174.7" enable-background="new 0 0 174.7 174.7" xml:space="preserve">
<g>
	<path fill="#F26322" d="M122.3,140.9l-23.5-18.8c13.7-7.3,29.5-25.2,33.3-40.6c-1.3,0.9-5.1,1.3-8.6,1.3
		c-16.2,0-29.1-12.4-29.1-30.8s15.4-33.8,33.8-33.8c20.1,0,38,15.8,38,43.6C166.3,93.9,148.8,122.6,122.3,140.9z M35.5,140.9
		l-23.9-18.8c13.7-7.3,29.9-25.2,33.3-40.6c-1.3,0.9-5.1,1.3-8.6,1.3C20.5,82.8,7.7,70.4,7.7,52s15-33.8,33.8-33.8
		c20.1,0,37.6,15.8,37.6,43.6C79.1,93.9,62,122.6,35.5,140.9z"/>
</g>
</svg>
